<svg width="99" height="98" viewBox="0 0 99 98" fill="none" xmlns="http://www.w3.org/2000/svg">
<path d="M99 85.75C99 88.9989 97.6962 92.1147 95.3754 94.4121C93.0547 96.7094 89.9071 98 86.625 98H12.375C9.09295 98 5.94532 96.7094 3.62455 94.4121C1.30379 92.1147 0 88.9989 0 85.75V12.25C0 9.0011 1.30379 5.88526 3.62455 3.58794C5.94532 1.29062 9.09295 0 12.375 0L86.625 0C89.9071 0 93.0547 1.29062 95.3754 3.58794C97.6962 5.88526 99 9.0011 99 12.25V85.75ZM71.1562 45.9375H35.3121L48.5966 32.7933C49.1775 32.2182 49.5039 31.4383 49.5039 30.625C49.5039 29.8117 49.1775 29.0318 48.5966 28.4567C48.0157 27.8817 47.2278 27.5586 46.4062 27.5586C45.5847 27.5586 44.7968 27.8817 44.2159 28.4567L25.6534 46.8317C25.3653 47.1162 25.1367 47.4542 24.9807 47.8262C24.8247 48.1983 24.7445 48.5972 24.7445 49C24.7445 49.4028 24.8247 49.8017 24.9807 50.1738C25.1367 50.5458 25.3653 50.8838 25.6534 51.1683L44.2159 69.5433C44.7968 70.1183 45.5847 70.4414 46.4062 70.4414C47.2278 70.4414 48.0157 70.1183 48.5966 69.5433C49.1775 68.9682 49.5039 68.1882 49.5039 67.375C49.5039 66.5618 49.1775 65.7818 48.5966 65.2067L35.3121 52.0625H71.1562C71.9768 52.0625 72.7637 51.7398 73.3439 51.1655C73.9241 50.5912 74.25 49.8122 74.25 49C74.25 48.1878 73.9241 47.4088 73.3439 46.8345C72.7637 46.2602 71.9768 45.9375 71.1562 45.9375Z" fill="#1A3455"/>
</svg>
