<svg width="123" height="122" viewBox="0 0 123 122" fill="none" xmlns="http://www.w3.org/2000/svg">
<path fill-rule="evenodd" clip-rule="evenodd" d="M90.4414 53.4045C80.5814 70.5228 72.9024 92.0025 67.7303 112.712L67.3817 114.107C65.3192 122.366 54.2733 123.954 49.9676 116.611C40.3395 100.192 33.5909 92.0282 26.6794 86.1652C20.857 81.2261 14.8008 77.7463 5.91238 72.6392C1.54274 70.1285 -0.382197 64.851 1.31363 60.1053L4.25143 51.884C5.59899 48.113 10.0468 46.4871 13.5212 48.4783C22.6359 53.7019 30.57 58.249 37.8995 64.4666C45.8487 71.2098 59.3496 69.1284 63.4574 59.5479C66.6798 52.0325 70.2413 44.7717 74.1447 37.9949C82.8731 22.8414 93.744 9.38186 106.847 1.43254C113.357 -2.51694 120.967 2.24305 122.245 9.74957C123.342 16.1953 119.262 22.3461 113.832 25.9876C105.395 31.6451 97.5427 41.0759 90.4414 53.4045Z" fill="#7DC8B1"/>
</svg>
