<svg width="45" height="45" viewBox="0 0 45 45" fill="none" xmlns="http://www.w3.org/2000/svg">
<path d="M13.5532 22.3627L20.2635 28.6944L31.4473 18.1415" stroke="#4DBAB3" stroke-width="5" stroke-linecap="round" stroke-linejoin="round"/>
<path d="M3 22.5C3 19.9392 3.50438 17.4035 4.48435 15.0377C5.46432 12.6718 6.90068 10.5222 8.71142 8.71142C10.5222 6.90068 12.6718 5.46432 15.0377 4.48435C17.4035 3.50438 19.9392 3 22.5 3C25.0608 3 27.5965 3.50438 29.9623 4.48435C32.3282 5.46432 34.4778 6.90068 36.2886 8.71142C38.0993 10.5222 39.5357 12.6718 40.5157 15.0377C41.4956 17.4035 42 19.9392 42 22.5C42 27.6717 39.9455 32.6316 36.2886 36.2886C32.6316 39.9455 27.6717 42 22.5 42C17.3283 42 12.3684 39.9455 8.71142 36.2886C5.05446 32.6316 3 27.6717 3 22.5V22.5Z" stroke="#4DBAB3" stroke-width="5" stroke-linecap="round"/>
</svg>
