<svg width="77" height="77" viewBox="0 0 77 77" fill="none" xmlns="http://www.w3.org/2000/svg">
<path fill-rule="evenodd" clip-rule="evenodd" d="M56.0619 33.6298C49.9021 44.4115 45.1049 57.9403 41.8738 70.9839L41.656 71.8625C40.3676 77.0644 33.467 78.0646 30.7772 73.4397C24.7623 63.0983 20.5463 57.9565 16.2286 54.2637C12.5912 51.1529 8.80783 48.9612 3.25508 45.7445C0.525289 44.1632 -0.677253 40.8392 0.38216 37.8502L2.21746 32.6721C3.0593 30.297 5.83793 29.2729 8.00844 30.5271C13.7026 33.8171 18.6591 36.681 23.238 40.5971C28.204 44.8442 36.6383 43.5333 39.2045 37.4991C41.2176 32.7657 43.4425 28.1925 45.881 23.9242C51.3338 14.38 58.125 5.90265 66.3107 0.89586C70.3776 -1.59167 75.1317 1.40635 75.9301 6.13424C76.6154 10.194 74.0666 14.068 70.6744 16.3616C65.4036 19.9249 60.4982 25.8648 56.0619 33.6298Z" fill="#7DC8B1"/>
</svg>
