<svg width="99" height="97" viewBox="0 0 99 97" fill="none" xmlns="http://www.w3.org/2000/svg">
<path d="M0 84.875C0 88.0908 1.30379 91.1748 3.62456 93.4487C5.94532 95.7225 9.09295 97 12.375 97H86.625C89.9071 97 93.0547 95.7225 95.3754 93.4487C97.6962 91.1748 99 88.0908 99 84.875V12.125C99 8.90925 97.6962 5.82521 95.3754 3.55133C93.0547 1.27745 89.9071 0 86.625 0L12.375 0C9.09295 0 5.94532 1.27745 3.62456 3.55133C1.30379 5.82521 0 8.90925 0 12.125V84.875ZM27.8438 45.4688H63.6879L50.4034 32.4586C49.8225 31.8894 49.4961 31.1175 49.4961 30.3125C49.4961 29.5075 49.8225 28.7356 50.4034 28.1664C50.9843 27.5972 51.7722 27.2774 52.5938 27.2774C53.4153 27.2774 54.2032 27.5972 54.7841 28.1664L73.3466 46.3539C73.6347 46.6355 73.8633 46.97 74.0193 47.3382C74.1753 47.7065 74.2555 48.1013 74.2555 48.5C74.2555 48.8987 74.1753 49.2935 74.0193 49.6618C73.8633 50.03 73.6347 50.3645 73.3466 50.6461L54.7841 68.8336C54.2032 69.4028 53.4153 69.7226 52.5938 69.7226C51.7722 69.7226 50.9843 69.4028 50.4034 68.8336C49.8225 68.2644 49.4961 67.4925 49.4961 66.6875C49.4961 65.8825 49.8225 65.1106 50.4034 64.5414L63.6879 51.5312H27.8438C27.0232 51.5312 26.2363 51.2119 25.6561 50.6434C25.0759 50.075 24.75 49.3039 24.75 48.5C24.75 47.6961 25.0759 46.9251 25.6561 46.3566C26.2363 45.7881 27.0232 45.4688 27.8438 45.4688Z" fill="#1A3455"/>
</svg>
